solid Exported from Blender-3.4.1
facet normal 1.000000 0.000000 0.000000
outer loop
vertex 1.000000 0.111114 -0.166294
vertex 1.000000 0.141421 -0.141421
vertex 1.000000 0.166294 -0.111114
endloop
endfacet
facet normal 1.000000 0.000000 0.000000
outer loop
vertex 1.000000 0.166294 -0.111114
vertex 1.000000 0.184776 -0.076537
vertex 1.000000 0.196157 -0.039018
endloop
endfacet
facet normal 1.000000 0.000000 0.000000
outer loop
vertex 1.000000 0.196157 -0.039018
vertex 1.000000 0.200000 0.000000
vertex 1.000000 0.196157 0.039018
endloop
endfacet
facet normal 1.000000 0.000000 0.000000
outer loop
vertex 1.000000 0.196157 0.039018
vertex 1.000000 0.184776 0.076537
vertex 1.000000 0.166294 0.111114
endloop
endfacet
facet normal 1.000000 0.000000 0.000000
outer loop
vertex 1.000000 0.166294 0.111114
vertex 1.000000 0.141421 0.141421
vertex 1.000000 0.111114 0.166294
endloop
endfacet
facet normal 1.000000 0.000000 0.000000
outer loop
vertex 1.000000 0.111114 0.166294
vertex 1.000000 0.076537 0.184776
vertex 1.000000 0.039018 0.196157
endloop
endfacet
facet normal 1.000000 0.000000 0.000000
outer loop
vertex 1.000000 0.039018 0.196157
vertex 1.000000 0.000000 0.200000
vertex 1.000000 -0.039018 0.196157
endloop
endfacet
facet normal 1.000000 0.000000 0.000000
outer loop
vertex 1.000000 -0.039018 0.196157
vertex 1.000000 -0.076537 0.184776
vertex 1.000000 -0.111114 0.166294
endloop
endfacet
facet normal 1.000000 0.000000 0.000000
outer loop
vertex 1.000000 -0.111114 0.166294
vertex 1.000000 -0.141421 0.141421
vertex 1.000000 -0.166294 0.111114
endloop
endfacet
facet normal 1.000000 0.000000 0.000000
outer loop
vertex 1.000000 -0.166294 0.111114
vertex 1.000000 -0.184776 0.076537
vertex 1.000000 -0.196157 0.039018
endloop
endfacet
facet normal 1.000000 0.000000 0.000000
outer loop
vertex 1.000000 -0.196157 0.039018
vertex 1.000000 -0.200000 0.000000
vertex 1.000000 -0.196157 -0.039018
endloop
endfacet
facet normal 1.000000 0.000000 0.000000
outer loop
vertex 1.000000 -0.196157 -0.039018
vertex 1.000000 -0.184776 -0.076537
vertex 1.000000 -0.166294 -0.111114
endloop
endfacet
facet normal 1.000000 0.000000 0.000000
outer loop
vertex 1.000000 -0.166294 -0.111114
vertex 1.000000 -0.141421 -0.141421
vertex 1.000000 -0.111114 -0.166294
endloop
endfacet
facet normal 1.000000 0.000000 0.000000
outer loop
vertex 1.000000 -0.111114 -0.166294
vertex 1.000000 -0.076537 -0.184776
vertex 1.000000 -0.039018 -0.196157
endloop
endfacet
facet normal 1.000000 0.000000 0.000000
outer loop
vertex 1.000000 -0.039018 -0.196157
vertex 1.000000 0.000000 -0.200000
vertex 1.000000 0.039018 -0.196157
endloop
endfacet
facet normal 1.000000 0.000000 0.000000
outer loop
vertex 1.000000 0.039018 -0.196157
vertex 1.000000 0.076537 -0.184776
vertex 1.000000 0.111114 -0.166294
endloop
endfacet
facet normal 1.000000 0.000000 0.000000
outer loop
vertex 1.000000 0.111114 -0.166294
vertex 1.000000 0.166294 -0.111114
vertex 1.000000 0.196157 -0.039018
endloop
endfacet
facet normal 1.000000 0.000006 0.000000
outer loop
vertex 1.000000 0.196157 -0.039018
vertex 1.000000 0.196157 0.039018
vertex 1.000000 0.166294 0.111114
endloop
endfacet
facet normal 1.000000 0.000000 0.000000
outer loop
vertex 1.000000 0.166294 0.111114
vertex 1.000000 0.111114 0.166294
vertex 1.000000 0.039018 0.196157
endloop
endfacet
facet normal 1.000000 0.000000 0.000000
outer loop
vertex 1.000000 0.039018 0.196157
vertex 1.000000 -0.039018 0.196157
vertex 1.000000 -0.111114 0.166294
endloop
endfacet
facet normal 1.000000 0.000000 0.000000
outer loop
vertex 1.000000 -0.111114 0.166294
vertex 1.000000 -0.166294 0.111114
vertex 1.000000 -0.196157 0.039018
endloop
endfacet
facet normal 1.000000 -0.000006 0.000000
outer loop
vertex 1.000000 -0.196157 0.039018
vertex 1.000000 -0.196157 -0.039018
vertex 1.000000 -0.166294 -0.111114
endloop
endfacet
facet normal 1.000000 0.000000 0.000000
outer loop
vertex 1.000000 -0.166294 -0.111114
vertex 1.000000 -0.111114 -0.166294
vertex 1.000000 -0.039018 -0.196157
endloop
endfacet
facet normal 1.000000 0.000000 0.000000
outer loop
vertex 1.000000 -0.039018 -0.196157
vertex 1.000000 0.039018 -0.196157
vertex 1.000000 0.111114 -0.166294
endloop
endfacet
facet normal 1.000000 0.000000 0.000000
outer loop
vertex 1.000000 0.111114 -0.166294
vertex 1.000000 0.196157 -0.039018
vertex 1.000000 0.166294 0.111114
endloop
endfacet
facet normal 1.000000 0.000000 0.000000
outer loop
vertex 1.000000 0.166294 0.111114
vertex 1.000000 0.039018 0.196157
vertex 1.000000 -0.111114 0.166294
endloop
endfacet
facet normal 1.000000 0.000000 0.000000
outer loop
vertex 1.000000 -0.111114 0.166294
vertex 1.000000 -0.196157 0.039018
vertex 1.000000 -0.166294 -0.111114
endloop
endfacet
facet normal 1.000000 0.000000 0.000000
outer loop
vertex 1.000000 -0.166294 -0.111114
vertex 1.000000 -0.039018 -0.196157
vertex 1.000000 0.111114 -0.166294
endloop
endfacet
facet normal 1.000000 -0.000000 0.000000
outer loop
vertex 1.000000 0.111114 -0.166294
vertex 1.000000 0.166294 0.111114
vertex 1.000000 -0.111114 0.166294
endloop
endfacet
facet normal 1.000000 0.000000 0.000000
outer loop
vertex 1.000000 -0.111114 0.166294
vertex 1.000000 -0.166294 -0.111114
vertex 1.000000 0.111114 -0.166294
endloop
endfacet
endsolid Exported from Blender-3.4.1
solid Exported from Blender-3.4.1
facet normal 0.000000 0.995185 -0.098017
outer loop
vertex -1.000000 0.200000 -0.000000
vertex 1.000000 0.200000 0.000000
vertex 1.000000 0.196157 -0.039018
endloop
endfacet
facet normal 0.000000 0.995185 -0.098017
outer loop
vertex -1.000000 0.200000 -0.000000
vertex 1.000000 0.196157 -0.039018
vertex -1.000000 0.196157 -0.039018
endloop
endfacet
facet normal 0.000000 0.956940 -0.290285
outer loop
vertex -1.000000 0.196157 -0.039018
vertex 1.000000 0.196157 -0.039018
vertex 1.000000 0.184776 -0.076537
endloop
endfacet
facet normal 0.000000 0.956940 -0.290285
outer loop
vertex -1.000000 0.196157 -0.039018
vertex 1.000000 0.184776 -0.076537
vertex -1.000000 0.184776 -0.076537
endloop
endfacet
facet normal 0.000000 0.881921 -0.471397
outer loop
vertex -1.000000 0.184776 -0.076537
vertex 1.000000 0.184776 -0.076537
vertex 1.000000 0.166294 -0.111114
endloop
endfacet
facet normal 0.000000 0.881921 -0.471396
outer loop
vertex -1.000000 0.184776 -0.076537
vertex 1.000000 0.166294 -0.111114
vertex -1.000000 0.166294 -0.111114
endloop
endfacet
facet normal 0.000000 0.773011 -0.634393
outer loop
vertex -1.000000 0.166294 -0.111114
vertex 1.000000 0.166294 -0.111114
vertex 1.000000 0.141421 -0.141421
endloop
endfacet
facet normal 0.000000 0.773010 -0.634393
outer loop
vertex -1.000000 0.166294 -0.111114
vertex 1.000000 0.141421 -0.141421
vertex -1.000000 0.141421 -0.141421
endloop
endfacet
facet normal 0.000000 0.634393 -0.773011
outer loop
vertex -1.000000 0.141421 -0.141421
vertex 1.000000 0.141421 -0.141421
vertex 1.000000 0.111114 -0.166294
endloop
endfacet
facet normal 0.000000 0.634393 -0.773011
outer loop
vertex -1.000000 0.141421 -0.141421
vertex 1.000000 0.111114 -0.166294
vertex -1.000000 0.111114 -0.166294
endloop
endfacet
facet normal 0.000000 0.471397 -0.881921
outer loop
vertex -1.000000 0.111114 -0.166294
vertex 1.000000 0.111114 -0.166294
vertex 1.000000 0.076537 -0.184776
endloop
endfacet
facet normal 0.000000 0.471397 -0.881921
outer loop
vertex -1.000000 0.111114 -0.166294
vertex 1.000000 0.076537 -0.184776
vertex -1.000000 0.076537 -0.184776
endloop
endfacet
facet normal 0.000000 0.290285 -0.956940
outer loop
vertex -1.000000 0.076537 -0.184776
vertex 1.000000 0.076537 -0.184776
vertex 1.000000 0.039018 -0.196157
endloop
endfacet
facet normal 0.000000 0.290285 -0.956940
outer loop
vertex -1.000000 0.076537 -0.184776
vertex 1.000000 0.039018 -0.196157
vertex -1.000000 0.039018 -0.196157
endloop
endfacet
facet normal 0.000000 0.098017 -0.995185
outer loop
vertex -1.000000 0.039018 -0.196157
vertex 1.000000 0.039018 -0.196157
vertex 1.000000 0.000000 -0.200000
endloop
endfacet
facet normal 0.000000 0.098017 -0.995185
outer loop
vertex -1.000000 0.039018 -0.196157
vertex 1.000000 0.000000 -0.200000
vertex -1.000000 0.000000 -0.200000
endloop
endfacet
facet normal 0.000000 -0.098017 -0.995185
outer loop
vertex -1.000000 0.000000 -0.200000
vertex 1.000000 0.000000 -0.200000
vertex 1.000000 -0.039018 -0.196157
endloop
endfacet
facet normal 0.000000 -0.098017 -0.995185
outer loop
vertex -1.000000 0.000000 -0.200000
vertex 1.000000 -0.039018 -0.196157
vertex -1.000000 -0.039018 -0.196157
endloop
endfacet
facet normal 0.000000 -0.290285 -0.956940
outer loop
vertex -1.000000 -0.039018 -0.196157
vertex 1.000000 -0.039018 -0.196157
vertex 1.000000 -0.076537 -0.184776
endloop
endfacet
facet normal 0.000000 -0.290285 -0.956940
outer loop
vertex -1.000000 -0.039018 -0.196157
vertex 1.000000 -0.076537 -0.184776
vertex -1.000000 -0.076537 -0.184776
endloop
endfacet
facet normal 0.000000 -0.471397 -0.881921
outer loop
vertex -1.000000 -0.076537 -0.184776
vertex 1.000000 -0.076537 -0.184776
vertex 1.000000 -0.111114 -0.166294
endloop
endfacet
facet normal 0.000000 -0.471397 -0.881921
outer loop
vertex -1.000000 -0.076537 -0.184776
vertex 1.000000 -0.111114 -0.166294
vertex -1.000000 -0.111114 -0.166294
endloop
endfacet
facet normal 0.000000 -0.634393 -0.773011
outer loop
vertex -1.000000 -0.111114 -0.166294
vertex 1.000000 -0.111114 -0.166294
vertex 1.000000 -0.141421 -0.141421
endloop
endfacet
facet normal 0.000000 -0.634393 -0.773011
outer loop
vertex -1.000000 -0.111114 -0.166294
vertex 1.000000 -0.141421 -0.141421
vertex -1.000000 -0.141421 -0.141421
endloop
endfacet
facet normal 0.000000 -0.773010 -0.634393
outer loop
vertex -1.000000 -0.141421 -0.141421
vertex 1.000000 -0.141421 -0.141421
vertex 1.000000 -0.166294 -0.111114
endloop
endfacet
facet normal 0.000000 -0.773011 -0.634393
outer loop
vertex -1.000000 -0.141421 -0.141421
vertex 1.000000 -0.166294 -0.111114
vertex -1.000000 -0.166294 -0.111114
endloop
endfacet
facet normal 0.000000 -0.881921 -0.471396
outer loop
vertex -1.000000 -0.166294 -0.111114
vertex 1.000000 -0.166294 -0.111114
vertex 1.000000 -0.184776 -0.076537
endloop
endfacet
facet normal 0.000000 -0.881921 -0.471397
outer loop
vertex -1.000000 -0.166294 -0.111114
vertex 1.000000 -0.184776 -0.076537
vertex -1.000000 -0.184776 -0.076537
endloop
endfacet
facet normal 0.000000 -0.956940 -0.290285
outer loop
vertex -1.000000 -0.184776 -0.076537
vertex 1.000000 -0.184776 -0.076537
vertex 1.000000 -0.196157 -0.039018
endloop
endfacet
facet normal 0.000000 -0.956940 -0.290285
outer loop
vertex -1.000000 -0.184776 -0.076537
vertex 1.000000 -0.196157 -0.039018
vertex -1.000000 -0.196157 -0.039018
endloop
endfacet
facet normal 0.000000 -0.995185 -0.098017
outer loop
vertex -1.000000 -0.196157 -0.039018
vertex 1.000000 -0.196157 -0.039018
vertex 1.000000 -0.200000 0.000000
endloop
endfacet
facet normal 0.000000 -0.995185 -0.098017
outer loop
vertex -1.000000 -0.196157 -0.039018
vertex 1.000000 -0.200000 0.000000
vertex -1.000000 -0.200000 -0.000000
endloop
endfacet
facet normal -0.000000 -0.995185 0.098017
outer loop
vertex -1.000000 -0.200000 -0.000000
vertex 1.000000 -0.200000 0.000000
vertex 1.000000 -0.196157 0.039018
endloop
endfacet
facet normal -0.000000 -0.995185 0.098017
outer loop
vertex -1.000000 -0.200000 -0.000000
vertex 1.000000 -0.196157 0.039018
vertex -1.000000 -0.196157 0.039018
endloop
endfacet
facet normal -0.000000 -0.956940 0.290285
outer loop
vertex -1.000000 -0.196157 0.039018
vertex 1.000000 -0.196157 0.039018
vertex 1.000000 -0.184776 0.076537
endloop
endfacet
facet normal -0.000000 -0.956940 0.290285
outer loop
vertex -1.000000 -0.196157 0.039018
vertex 1.000000 -0.184776 0.076537
vertex -1.000000 -0.184776 0.076537
endloop
endfacet
facet normal -0.000000 -0.881921 0.471397
outer loop
vertex -1.000000 -0.184776 0.076537
vertex 1.000000 -0.184776 0.076537
vertex 1.000000 -0.166294 0.111114
endloop
endfacet
facet normal -0.000000 -0.881921 0.471396
outer loop
vertex -1.000000 -0.184776 0.076537
vertex 1.000000 -0.166294 0.111114
vertex -1.000000 -0.166294 0.111114
endloop
endfacet
facet normal -0.000000 -0.773011 0.634393
outer loop
vertex -1.000000 -0.166294 0.111114
vertex 1.000000 -0.166294 0.111114
vertex 1.000000 -0.141421 0.141421
endloop
endfacet
facet normal -0.000000 -0.773010 0.634393
outer loop
vertex -1.000000 -0.166294 0.111114
vertex 1.000000 -0.141421 0.141421
vertex -1.000000 -0.141421 0.141421
endloop
endfacet
facet normal -0.000000 -0.634393 0.773011
outer loop
vertex -1.000000 -0.141421 0.141421
vertex 1.000000 -0.141421 0.141421
vertex 1.000000 -0.111114 0.166294
endloop
endfacet
facet normal -0.000000 -0.634393 0.773011
outer loop
vertex -1.000000 -0.141421 0.141421
vertex 1.000000 -0.111114 0.166294
vertex -1.000000 -0.111114 0.166294
endloop
endfacet
facet normal -0.000000 -0.471397 0.881921
outer loop
vertex -0.063612 -0.076537 0.184776
vertex -1.000000 -0.076537 0.184776
vertex -1.000000 -0.111114 0.166294
endloop
endfacet
facet normal -0.000000 -0.471397 0.881921
outer loop
vertex 1.000000 -0.111114 0.166294
vertex 1.000000 -0.076537 0.184776
vertex 0.063612 -0.076537 0.184776
endloop
endfacet
facet normal -0.000000 -0.471397 0.881921
outer loop
vertex 1.000000 -0.111114 0.166294
vertex 0.063612 -0.076537 0.184776
vertex 0.055557 -0.083147 0.181243
endloop
endfacet
facet normal -0.000000 -0.471396 0.881922
outer loop
vertex -0.055557 -0.083147 0.181243
vertex -0.063612 -0.076537 0.184776
vertex -1.000000 -0.111114 0.166294
endloop
endfacet
facet normal 0.000000 -0.471398 0.881921
outer loop
vertex -0.038268 -0.092388 0.176303
vertex -0.055557 -0.083147 0.181243
vertex -1.000000 -0.111114 0.166294
endloop
endfacet
facet normal -0.000000 -0.471397 0.881921
outer loop
vertex 1.000000 -0.111114 0.166294
vertex 0.055557 -0.083147 0.181243
vertex 0.038268 -0.092388 0.176303
endloop
endfacet
facet normal 0.000000 -0.471396 0.881921
outer loop
vertex 1.000000 -0.111114 0.166294
vertex 0.038268 -0.092388 0.176303
vertex 0.019509 -0.098079 0.173262
endloop
endfacet
facet normal -0.000000 -0.471396 0.881922
outer loop
vertex -0.019509 -0.098079 0.173262
vertex -0.038268 -0.092388 0.176303
vertex -1.000000 -0.111114 0.166294
endloop
endfacet
facet normal -0.000000 -0.471396 0.881922
outer loop
vertex 1.000000 -0.111114 0.166294
vertex 0.019509 -0.098079 0.173262
vertex -0.000000 -0.100000 0.172235
endloop
endfacet
facet normal 0.000000 -0.471396 0.881922
outer loop
vertex -0.000000 -0.100000 0.172235
vertex -0.019509 -0.098079 0.173262
vertex -1.000000 -0.111114 0.166294
endloop
endfacet
facet normal -0.000000 -0.471397 0.881921
outer loop
vertex -1.000000 -0.111114 0.166294
vertex 1.000000 -0.111114 0.166294
vertex -0.000000 -0.100000 0.172235
endloop
endfacet
facet normal -0.000000 -0.290286 0.956940
outer loop
vertex 0.070711 -0.070711 0.186543
vertex 0.063612 -0.076537 0.184776
vertex 1.000000 -0.076537 0.184776
endloop
endfacet
facet normal -0.000000 -0.290285 0.956940
outer loop
vertex 1.000000 -0.076537 0.184776
vertex 1.000000 -0.039018 0.196157
vertex 0.091987 -0.039018 0.196157
endloop
endfacet
facet normal -0.000000 -0.290284 0.956941
outer loop
vertex 0.083147 -0.055557 0.191140
vertex 0.070711 -0.070711 0.186543
vertex 1.000000 -0.076537 0.184776
endloop
endfacet
facet normal -0.000000 -0.290285 0.956940
outer loop
vertex 1.000000 -0.076537 0.184776
vertex 0.091987 -0.039018 0.196157
vertex 0.083147 -0.055557 0.191140
endloop
endfacet
facet normal -0.000000 -0.290285 0.956940
outer loop
vertex -0.091987 -0.039018 0.196157
vertex -1.000000 -0.039018 0.196157
vertex -1.000000 -0.076537 0.184776
endloop
endfacet
facet normal -0.000000 -0.290286 0.956940
outer loop
vertex -1.000000 -0.076537 0.184776
vertex -0.063612 -0.076537 0.184776
vertex -0.070711 -0.070711 0.186543
endloop
endfacet
facet normal -0.000000 -0.290285 0.956940
outer loop
vertex -0.083147 -0.055557 0.191140
vertex -0.091987 -0.039018 0.196157
vertex -1.000000 -0.076537 0.184776
endloop
endfacet
facet normal -0.000000 -0.290284 0.956941
outer loop
vertex -1.000000 -0.076537 0.184776
vertex -0.070711 -0.070711 0.186543
vertex -0.083147 -0.055557 0.191140
endloop
endfacet
facet normal -0.000000 -0.098009 0.995186
outer loop
vertex 0.092388 -0.038268 0.196231
vertex 0.091987 -0.039018 0.196157
vertex 1.000000 -0.039018 0.196157
endloop
endfacet
facet normal -0.000000 -0.098017 0.995185
outer loop
vertex 1.000000 -0.039018 0.196157
vertex 1.000000 0.000000 0.200000
vertex 0.100000 0.000000 0.200000
endloop
endfacet
facet normal -0.000000 -0.098018 0.995185
outer loop
vertex 0.098079 -0.019509 0.198079
vertex 0.092388 -0.038268 0.196231
vertex 1.000000 -0.039018 0.196157
endloop
endfacet
facet normal -0.000000 -0.098018 0.995185
outer loop
vertex 1.000000 -0.039018 0.196157
vertex 0.100000 0.000000 0.200000
vertex 0.098079 -0.019509 0.198079
endloop
endfacet
facet normal -0.000000 -0.098017 0.995185
outer loop
vertex -0.100000 0.000000 0.200000
vertex -1.000000 0.000000 0.200000
vertex -1.000000 -0.039018 0.196157
endloop
endfacet
facet normal -0.000000 -0.098010 0.995185
outer loop
vertex -1.000000 -0.039018 0.196157
vertex -0.091987 -0.039018 0.196157
vertex -0.092388 -0.038268 0.196231
endloop
endfacet
facet normal -0.000000 -0.098017 0.995185
outer loop
vertex -0.098079 -0.019509 0.198079
vertex -0.100000 0.000000 0.200000
vertex -1.000000 -0.039018 0.196157
endloop
endfacet
facet normal -0.000000 -0.098018 0.995185
outer loop
vertex -1.000000 -0.039018 0.196157
vertex -0.092388 -0.038268 0.196231
vertex -0.098079 -0.019509 0.198079
endloop
endfacet
facet normal -0.000000 0.098017 0.995185
outer loop
vertex 0.100000 0.000000 0.200000
vertex 1.000000 0.000000 0.200000
vertex 1.000000 0.039018 0.196157
endloop
endfacet
facet normal -0.000000 0.098009 0.995186
outer loop
vertex 1.000000 0.039018 0.196157
vertex 0.091987 0.039018 0.196157
vertex 0.092388 0.038268 0.196231
endloop
endfacet
facet normal -0.000000 0.098018 0.995185
outer loop
vertex 0.098079 0.019509 0.198079
vertex 0.100000 0.000000 0.200000
vertex 1.000000 0.039018 0.196157
endloop
endfacet
facet normal -0.000000 0.098018 0.995185
outer loop
vertex 1.000000 0.039018 0.196157
vertex 0.092388 0.038268 0.196231
vertex 0.098079 0.019509 0.198079
endloop
endfacet
facet normal -0.000000 0.098010 0.995185
outer loop
vertex -0.092388 0.038268 0.196231
vertex -0.091987 0.039018 0.196157
vertex -1.000000 0.039018 0.196157
endloop
endfacet
facet normal -0.000000 0.098017 0.995185
outer loop
vertex -1.000000 0.039018 0.196157
vertex -1.000000 0.000000 0.200000
vertex -0.100000 0.000000 0.200000
endloop
endfacet
facet normal -0.000000 0.098018 0.995185
outer loop
vertex -0.098079 0.019509 0.198079
vertex -0.092388 0.038268 0.196231
vertex -1.000000 0.039018 0.196157
endloop
endfacet
facet normal -0.000000 0.098017 0.995185
outer loop
vertex -1.000000 0.039018 0.196157
vertex -0.100000 0.000000 0.200000
vertex -0.098079 0.019509 0.198079
endloop
endfacet
facet normal -0.000000 0.290285 0.956940
outer loop
vertex 0.091987 0.039018 0.196157
vertex 1.000000 0.039018 0.196157
vertex 1.000000 0.076537 0.184776
endloop
endfacet
facet normal -0.000000 0.290286 0.956940
outer loop
vertex 1.000000 0.076537 0.184776
vertex 0.063612 0.076537 0.184776
vertex 0.070711 0.070711 0.186543
endloop
endfacet
facet normal -0.000000 0.290285 0.956940
outer loop
vertex 0.083147 0.055557 0.191140
vertex 0.091987 0.039018 0.196157
vertex 1.000000 0.076537 0.184776
endloop
endfacet
facet normal -0.000000 0.290284 0.956941
outer loop
vertex 1.000000 0.076537 0.184776
vertex 0.070711 0.070711 0.186543
vertex 0.083147 0.055557 0.191140
endloop
endfacet
facet normal -0.000000 0.290286 0.956940
outer loop
vertex -0.070711 0.070711 0.186543
vertex -0.063612 0.076537 0.184776
vertex -1.000000 0.076537 0.184776
endloop
endfacet
facet normal -0.000000 0.290285 0.956940
outer loop
vertex -1.000000 0.076537 0.184776
vertex -1.000000 0.039018 0.196157
vertex -0.091987 0.039018 0.196157
endloop
endfacet
facet normal -0.000000 0.290284 0.956941
outer loop
vertex -0.083147 0.055557 0.191140
vertex -0.070711 0.070711 0.186543
vertex -1.000000 0.076537 0.184776
endloop
endfacet
facet normal -0.000000 0.290285 0.956940
outer loop
vertex -1.000000 0.076537 0.184776
vertex -0.091987 0.039018 0.196157
vertex -0.083147 0.055557 0.191140
endloop
endfacet
facet normal -0.000000 0.471397 0.881921
outer loop
vertex 0.063612 0.076537 0.184776
vertex 1.000000 0.076537 0.184776
vertex 1.000000 0.111114 0.166294
endloop
endfacet
facet normal -0.000000 0.471397 0.881921
outer loop
vertex -1.000000 0.111114 0.166294
vertex -1.000000 0.076537 0.184776
vertex -0.063612 0.076537 0.184776
endloop
endfacet
facet normal -0.000000 0.471396 0.881922
outer loop
vertex -1.000000 0.111114 0.166294
vertex -0.063612 0.076537 0.184776
vertex -0.055557 0.083147 0.181243
endloop
endfacet
facet normal -0.000000 0.471397 0.881921
outer loop
vertex 0.055557 0.083147 0.181243
vertex 0.063612 0.076537 0.184776
vertex 1.000000 0.111114 0.166294
endloop
endfacet
facet normal 0.000000 0.471397 0.881921
outer loop
vertex 0.038268 0.092388 0.176303
vertex 0.055557 0.083147 0.181243
vertex 1.000000 0.111114 0.166294
endloop
endfacet
facet normal 0.000000 0.471398 0.881921
outer loop
vertex -1.000000 0.111114 0.166294
vertex -0.055557 0.083147 0.181243
vertex -0.038268 0.092388 0.176303
endloop
endfacet
facet normal -0.000000 0.471396 0.881922
outer loop
vertex -1.000000 0.111114 0.166294
vertex -0.038268 0.092388 0.176303
vertex -0.019509 0.098079 0.173262
endloop
endfacet
facet normal 0.000000 0.471396 0.881922
outer loop
vertex 0.019509 0.098079 0.173262
vertex 0.038268 0.092388 0.176303
vertex 1.000000 0.111114 0.166294
endloop
endfacet
facet normal -0.000000 0.471397 0.881921
outer loop
vertex -1.000000 0.111114 0.166294
vertex -0.019509 0.098079 0.173262
vertex -0.000000 0.100000 0.172235
endloop
endfacet
facet normal -0.000000 0.471395 0.881922
outer loop
vertex -0.000000 0.100000 0.172235
vertex 0.019509 0.098079 0.173262
vertex 1.000000 0.111114 0.166294
endloop
endfacet
facet normal -0.000000 0.471397 0.881921
outer loop
vertex 1.000000 0.111114 0.166294
vertex -1.000000 0.111114 0.166294
vertex -0.000000 0.100000 0.172235
endloop
endfacet
facet normal -0.000000 0.634393 0.773011
outer loop
vertex -1.000000 0.111114 0.166294
vertex 1.000000 0.111114 0.166294
vertex 1.000000 0.141421 0.141421
endloop
endfacet
facet normal -0.000000 0.634393 0.773011
outer loop
vertex -1.000000 0.111114 0.166294
vertex 1.000000 0.141421 0.141421
vertex -1.000000 0.141421 0.141421
endloop
endfacet
facet normal -0.000000 0.773010 0.634393
outer loop
vertex -1.000000 0.141421 0.141421
vertex 1.000000 0.141421 0.141421
vertex 1.000000 0.166294 0.111114
endloop
endfacet
facet normal -0.000000 0.773011 0.634393
outer loop
vertex -1.000000 0.141421 0.141421
vertex 1.000000 0.166294 0.111114
vertex -1.000000 0.166294 0.111114
endloop
endfacet
facet normal -0.000000 0.881921 0.471396
outer loop
vertex -1.000000 0.166294 0.111114
vertex 1.000000 0.166294 0.111114
vertex 1.000000 0.184776 0.076537
endloop
endfacet
facet normal -0.000000 0.881921 0.471397
outer loop
vertex -1.000000 0.166294 0.111114
vertex 1.000000 0.184776 0.076537
vertex -1.000000 0.184776 0.076537
endloop
endfacet
facet normal -0.000000 0.956940 0.290285
outer loop
vertex -1.000000 0.184776 0.076537
vertex 1.000000 0.184776 0.076537
vertex 1.000000 0.196157 0.039018
endloop
endfacet
facet normal -0.000000 0.956940 0.290285
outer loop
vertex -1.000000 0.184776 0.076537
vertex 1.000000 0.196157 0.039018
vertex -1.000000 0.196157 0.039018
endloop
endfacet
facet normal -0.000000 0.995185 0.098017
outer loop
vertex -1.000000 0.196157 0.039018
vertex 1.000000 0.196157 0.039018
vertex 1.000000 0.200000 0.000000
endloop
endfacet
facet normal -0.000000 0.995185 0.098017
outer loop
vertex -1.000000 0.196157 0.039018
vertex 1.000000 0.200000 0.000000
vertex -1.000000 0.200000 -0.000000
endloop
endfacet
endsolid Exported from Blender-3.4.1
solid Exported from Blender-3.4.1
facet normal -1.000000 0.000000 0.000000
outer loop
vertex -1.000000 0.184776 0.076537
vertex -1.000000 0.196157 0.039018
vertex -1.000000 0.200000 -0.000000
endloop
endfacet
facet normal -1.000000 0.000000 0.000000
outer loop
vertex -1.000000 0.200000 -0.000000
vertex -1.000000 0.196157 -0.039018
vertex -1.000000 0.184776 -0.076537
endloop
endfacet
facet normal -1.000000 0.000000 0.000000
outer loop
vertex -1.000000 0.184776 -0.076537
vertex -1.000000 0.166294 -0.111114
vertex -1.000000 0.141421 -0.141421
endloop
endfacet
facet normal -1.000000 0.000000 0.000000
outer loop
vertex -1.000000 0.141421 -0.141421
vertex -1.000000 0.111114 -0.166294
vertex -1.000000 0.076537 -0.184776
endloop
endfacet
facet normal -1.000000 0.000000 0.000000
outer loop
vertex -1.000000 0.076537 -0.184776
vertex -1.000000 0.039018 -0.196157
vertex -1.000000 0.000000 -0.200000
endloop
endfacet
facet normal -1.000000 0.000000 0.000000
outer loop
vertex -1.000000 0.000000 -0.200000
vertex -1.000000 -0.039018 -0.196157
vertex -1.000000 -0.076537 -0.184776
endloop
endfacet
facet normal -1.000000 0.000000 0.000000
outer loop
vertex -1.000000 -0.076537 -0.184776
vertex -1.000000 -0.111114 -0.166294
vertex -1.000000 -0.141421 -0.141421
endloop
endfacet
facet normal -1.000000 0.000000 0.000000
outer loop
vertex -1.000000 -0.141421 -0.141421
vertex -1.000000 -0.166294 -0.111114
vertex -1.000000 -0.184776 -0.076537
endloop
endfacet
facet normal -1.000000 0.000000 0.000000
outer loop
vertex -1.000000 -0.184776 -0.076537
vertex -1.000000 -0.196157 -0.039018
vertex -1.000000 -0.200000 -0.000000
endloop
endfacet
facet normal -1.000000 0.000000 0.000000
outer loop
vertex -1.000000 -0.200000 -0.000000
vertex -1.000000 -0.196157 0.039018
vertex -1.000000 -0.184776 0.076537
endloop
endfacet
facet normal -1.000000 0.000000 0.000000
outer loop
vertex -1.000000 -0.184776 0.076537
vertex -1.000000 -0.166294 0.111114
vertex -1.000000 -0.141421 0.141421
endloop
endfacet
facet normal -1.000000 0.000000 0.000000
outer loop
vertex -1.000000 -0.141421 0.141421
vertex -1.000000 -0.111114 0.166294
vertex -1.000000 -0.076537 0.184776
endloop
endfacet
facet normal -1.000000 0.000000 0.000000
outer loop
vertex -1.000000 -0.076537 0.184776
vertex -1.000000 -0.039018 0.196157
vertex -1.000000 0.000000 0.200000
endloop
endfacet
facet normal -1.000000 0.000000 0.000000
outer loop
vertex -1.000000 0.000000 0.200000
vertex -1.000000 0.039018 0.196157
vertex -1.000000 0.076537 0.184776
endloop
endfacet
facet normal -1.000000 0.000000 0.000000
outer loop
vertex -1.000000 0.076537 0.184776
vertex -1.000000 0.111114 0.166294
vertex -1.000000 0.141421 0.141421
endloop
endfacet
facet normal -1.000000 0.000000 0.000000
outer loop
vertex -1.000000 0.141421 0.141421
vertex -1.000000 0.166294 0.111114
vertex -1.000000 0.184776 0.076537
endloop
endfacet
facet normal -1.000000 0.000000 0.000000
outer loop
vertex -1.000000 0.184776 0.076537
vertex -1.000000 0.200000 -0.000000
vertex -1.000000 0.184776 -0.076537
endloop
endfacet
facet normal -1.000000 0.000000 0.000000
outer loop
vertex -1.000000 0.184776 -0.076537
vertex -1.000000 0.141421 -0.141421
vertex -1.000000 0.076537 -0.184776
endloop
endfacet
facet normal -1.000000 0.000000 0.000000
outer loop
vertex -1.000000 0.076537 -0.184776
vertex -1.000000 0.000000 -0.200000
vertex -1.000000 -0.076537 -0.184776
endloop
endfacet
facet normal -1.000000 0.000000 0.000000
outer loop
vertex -1.000000 -0.076537 -0.184776
vertex -1.000000 -0.141421 -0.141421
vertex -1.000000 -0.184776 -0.076537
endloop
endfacet
facet normal -1.000000 0.000000 0.000000
outer loop
vertex -1.000000 -0.184776 -0.076537
vertex -1.000000 -0.200000 -0.000000
vertex -1.000000 -0.184776 0.076537
endloop
endfacet
facet normal -1.000000 0.000000 0.000000
outer loop
vertex -1.000000 -0.184776 0.076537
vertex -1.000000 -0.141421 0.141421
vertex -1.000000 -0.076537 0.184776
endloop
endfacet
facet normal -1.000000 0.000000 0.000000
outer loop
vertex -1.000000 -0.076537 0.184776
vertex -1.000000 0.000000 0.200000
vertex -1.000000 0.076537 0.184776
endloop
endfacet
facet normal -1.000000 0.000000 0.000000
outer loop
vertex -1.000000 0.076537 0.184776
vertex -1.000000 0.141421 0.141421
vertex -1.000000 0.184776 0.076537
endloop
endfacet
facet normal -1.000000 0.000001 0.000000
outer loop
vertex -1.000000 0.184776 0.076537
vertex -1.000000 0.184776 -0.076537
vertex -1.000000 0.076537 -0.184776
endloop
endfacet
facet normal -1.000000 0.000000 0.000000
outer loop
vertex -1.000000 0.076537 -0.184776
vertex -1.000000 -0.076537 -0.184776
vertex -1.000000 -0.184776 -0.076537
endloop
endfacet
facet normal -1.000000 -0.000001 0.000000
outer loop
vertex -1.000000 -0.184776 -0.076537
vertex -1.000000 -0.184776 0.076537
vertex -1.000000 -0.076537 0.184776
endloop
endfacet
facet normal -1.000000 0.000000 0.000000
outer loop
vertex -1.000000 -0.076537 0.184776
vertex -1.000000 0.076537 0.184776
vertex -1.000000 0.184776 0.076537
endloop
endfacet
facet normal -1.000000 -0.000000 0.000000
outer loop
vertex -1.000000 0.184776 0.076537
vertex -1.000000 0.076537 -0.184776
vertex -1.000000 -0.184776 -0.076537
endloop
endfacet
facet normal -1.000000 0.000000 0.000000
outer loop
vertex -1.000000 -0.184776 -0.076537
vertex -1.000000 -0.076537 0.184776
vertex -1.000000 0.184776 0.076537
endloop
endfacet
endsolid Exported from Blender-3.4.1
solid Exported from Blender-3.4.1
facet normal 0.000000 0.000000 1.000000
outer loop
vertex 0.098078 -0.019509 2.000000
vertex 0.100000 0.000000 2.000000
vertex 0.098078 0.019509 2.000000
endloop
endfacet
facet normal 0.000000 0.000000 1.000000
outer loop
vertex 0.098078 0.019509 2.000000
vertex 0.092388 0.038268 2.000000
vertex 0.083147 0.055557 2.000000
endloop
endfacet
facet normal 0.000000 0.000000 1.000000
outer loop
vertex 0.083147 0.055557 2.000000
vertex 0.070711 0.070711 2.000000
vertex 0.055557 0.083147 2.000000
endloop
endfacet
facet normal 0.000000 0.000000 1.000000
outer loop
vertex 0.055557 0.083147 2.000000
vertex 0.038268 0.092388 2.000000
vertex 0.019509 0.098079 2.000000
endloop
endfacet
facet normal 0.000000 0.000000 1.000000
outer loop
vertex 0.019509 0.098079 2.000000
vertex -0.000000 0.100000 2.000000
vertex -0.019509 0.098079 2.000000
endloop
endfacet
facet normal 0.000000 0.000000 1.000000
outer loop
vertex -0.019509 0.098079 2.000000
vertex -0.038268 0.092388 2.000000
vertex -0.055557 0.083147 2.000000
endloop
endfacet
facet normal 0.000000 0.000000 1.000000
outer loop
vertex -0.055557 0.083147 2.000000
vertex -0.070711 0.070711 2.000000
vertex -0.083147 0.055557 2.000000
endloop
endfacet
facet normal 0.000000 0.000000 1.000000
outer loop
vertex -0.083147 0.055557 2.000000
vertex -0.092388 0.038268 2.000000
vertex -0.098079 0.019509 2.000000
endloop
endfacet
facet normal 0.000000 0.000000 1.000000
outer loop
vertex -0.098079 0.019509 2.000000
vertex -0.100000 0.000000 2.000000
vertex -0.098079 -0.019509 2.000000
endloop
endfacet
facet normal 0.000000 0.000000 1.000000
outer loop
vertex -0.098079 -0.019509 2.000000
vertex -0.092388 -0.038268 2.000000
vertex -0.083147 -0.055557 2.000000
endloop
endfacet
facet normal 0.000000 0.000000 1.000000
outer loop
vertex -0.083147 -0.055557 2.000000
vertex -0.070711 -0.070711 2.000000
vertex -0.055557 -0.083147 2.000000
endloop
endfacet
facet normal 0.000000 0.000000 1.000000
outer loop
vertex -0.055557 -0.083147 2.000000
vertex -0.038268 -0.092388 2.000000
vertex -0.019509 -0.098079 2.000000
endloop
endfacet
facet normal 0.000000 0.000000 1.000000
outer loop
vertex -0.019509 -0.098079 2.000000
vertex -0.000000 -0.100000 2.000000
vertex 0.019509 -0.098079 2.000000
endloop
endfacet
facet normal 0.000000 0.000000 1.000000
outer loop
vertex 0.019509 -0.098079 2.000000
vertex 0.038268 -0.092388 2.000000
vertex 0.055557 -0.083147 2.000000
endloop
endfacet
facet normal 0.000000 0.000000 1.000000
outer loop
vertex 0.055557 -0.083147 2.000000
vertex 0.070711 -0.070711 2.000000
vertex 0.083147 -0.055557 2.000000
endloop
endfacet
facet normal 0.000000 0.000000 1.000000
outer loop
vertex 0.083147 -0.055557 2.000000
vertex 0.092388 -0.038268 2.000000
vertex 0.098078 -0.019509 2.000000
endloop
endfacet
facet normal 0.000026 0.000000 1.000000
outer loop
vertex 0.098078 -0.019509 2.000000
vertex 0.098078 0.019509 2.000000
vertex 0.083147 0.055557 2.000000
endloop
endfacet
facet normal 0.000000 0.000000 1.000000
outer loop
vertex 0.083147 0.055557 2.000000
vertex 0.055557 0.083147 2.000000
vertex 0.019509 0.098079 2.000000
endloop
endfacet
facet normal 0.000000 0.000000 1.000000
outer loop
vertex 0.019509 0.098079 2.000000
vertex -0.019509 0.098079 2.000000
vertex -0.055557 0.083147 2.000000
endloop
endfacet
facet normal 0.000000 0.000000 1.000000
outer loop
vertex -0.055557 0.083147 2.000000
vertex -0.083147 0.055557 2.000000
vertex -0.098079 0.019509 2.000000
endloop
endfacet
facet normal -0.000026 0.000000 1.000000
outer loop
vertex -0.098079 0.019509 2.000000
vertex -0.098079 -0.019509 2.000000
vertex -0.083147 -0.055557 2.000000
endloop
endfacet
facet normal 0.000000 0.000000 1.000000
outer loop
vertex -0.083147 -0.055557 2.000000
vertex -0.055557 -0.083147 2.000000
vertex -0.019509 -0.098079 2.000000
endloop
endfacet
facet normal 0.000000 0.000000 1.000000
outer loop
vertex -0.019509 -0.098079 2.000000
vertex 0.019509 -0.098079 2.000000
vertex 0.055557 -0.083147 2.000000
endloop
endfacet
facet normal 0.000000 0.000000 1.000000
outer loop
vertex 0.055557 -0.083147 2.000000
vertex 0.083147 -0.055557 2.000000
vertex 0.098078 -0.019509 2.000000
endloop
endfacet
facet normal -0.000004 0.000000 1.000000
outer loop
vertex 0.098078 -0.019509 2.000000
vertex 0.083147 0.055557 2.000000
vertex 0.019509 0.098079 2.000000
endloop
endfacet
facet normal 0.000000 0.000000 1.000000
outer loop
vertex 0.019509 0.098079 2.000000
vertex -0.055557 0.083147 2.000000
vertex -0.098079 0.019509 2.000000
endloop
endfacet
facet normal 0.000004 0.000000 1.000000
outer loop
vertex -0.098079 0.019509 2.000000
vertex -0.083147 -0.055557 2.000000
vertex -0.019509 -0.098079 2.000000
endloop
endfacet
facet normal 0.000000 0.000000 1.000000
outer loop
vertex -0.019509 -0.098079 2.000000
vertex 0.055557 -0.083147 2.000000
vertex 0.098078 -0.019509 2.000000
endloop
endfacet
facet normal 0.000000 0.000000 1.000000
outer loop
vertex 0.098078 -0.019509 2.000000
vertex 0.019509 0.098079 2.000000
vertex -0.098079 0.019509 2.000000
endloop
endfacet
facet normal 0.000000 0.000000 1.000000
outer loop
vertex -0.098079 0.019509 2.000000
vertex -0.019509 -0.098079 2.000000
vertex 0.098078 -0.019509 2.000000
endloop
endfacet
endsolid Exported from Blender-3.4.1
solid Exported from Blender-3.4.1
facet normal 0.098017 0.995185 0.000000
outer loop
vertex -0.000000 0.100000 0.172235
vertex -0.000000 0.100000 2.000000
vertex 0.019509 0.098079 2.000000
endloop
endfacet
facet normal 0.098017 0.995185 0.000000
outer loop
vertex -0.000000 0.100000 0.172235
vertex 0.019509 0.098079 2.000000
vertex 0.019509 0.098079 0.173262
endloop
endfacet
facet normal 0.290285 0.956940 0.000000
outer loop
vertex 0.019509 0.098079 0.173262
vertex 0.019509 0.098079 2.000000
vertex 0.038268 0.092388 2.000000
endloop
endfacet
facet normal 0.290285 0.956940 0.000000
outer loop
vertex 0.019509 0.098079 0.173262
vertex 0.038268 0.092388 2.000000
vertex 0.038268 0.092388 0.176303
endloop
endfacet
facet normal 0.471397 0.881921 0.000000
outer loop
vertex 0.038268 0.092388 0.176303
vertex 0.038268 0.092388 2.000000
vertex 0.055557 0.083147 2.000000
endloop
endfacet
facet normal 0.471397 0.881921 0.000000
outer loop
vertex 0.038268 0.092388 0.176303
vertex 0.055557 0.083147 2.000000
vertex 0.055557 0.083147 0.181243
endloop
endfacet
facet normal 0.634393 0.773011 0.000000
outer loop
vertex 0.063612 0.076537 0.184776
vertex 0.055557 0.083147 0.181243
vertex 0.055557 0.083147 2.000000
endloop
endfacet
facet normal 0.634393 0.773011 0.000000
outer loop
vertex 0.055557 0.083147 2.000000
vertex 0.070711 0.070711 2.000000
vertex 0.070711 0.070711 0.186543
endloop
endfacet
facet normal 0.634393 0.773011 0.000000
outer loop
vertex 0.055557 0.083147 2.000000
vertex 0.070711 0.070711 0.186543
vertex 0.063612 0.076537 0.184776
endloop
endfacet
facet normal 0.773011 0.634393 0.000000
outer loop
vertex 0.070711 0.070711 0.186543
vertex 0.070711 0.070711 2.000000
vertex 0.083147 0.055557 2.000000
endloop
endfacet
facet normal 0.773011 0.634393 0.000000
outer loop
vertex 0.070711 0.070711 0.186543
vertex 0.083147 0.055557 2.000000
vertex 0.083147 0.055557 0.191140
endloop
endfacet
facet normal 0.881921 0.471397 0.000000
outer loop
vertex 0.091987 0.039018 0.196157
vertex 0.083147 0.055557 0.191140
vertex 0.083147 0.055557 2.000000
endloop
endfacet
facet normal 0.881921 0.471397 0.000000
outer loop
vertex 0.083147 0.055557 2.000000
vertex 0.092388 0.038268 2.000000
vertex 0.092388 0.038268 0.196231
endloop
endfacet
facet normal 0.881915 0.471408 0.000000
outer loop
vertex 0.083147 0.055557 2.000000
vertex 0.092388 0.038268 0.196231
vertex 0.091987 0.039018 0.196157
endloop
endfacet
facet normal 0.956940 0.290285 0.000000
outer loop
vertex 0.092388 0.038268 0.196231
vertex 0.092388 0.038268 2.000000
vertex 0.098078 0.019509 2.000000
endloop
endfacet
facet normal 0.956941 0.290284 0.000000
outer loop
vertex 0.092388 0.038268 0.196231
vertex 0.098078 0.019509 2.000000
vertex 0.098079 0.019509 0.198079
endloop
endfacet
facet normal 0.995185 0.098018 0.000000
outer loop
vertex 0.098079 0.019509 0.198079
vertex 0.098078 0.019509 2.000000
vertex 0.100000 0.000000 2.000000
endloop
endfacet
facet normal 0.995185 0.098016 0.000000
outer loop
vertex 0.098079 0.019509 0.198079
vertex 0.100000 0.000000 2.000000
vertex 0.100000 0.000000 0.200000
endloop
endfacet
facet normal 0.995185 -0.098018 0.000000
outer loop
vertex 0.100000 0.000000 2.000000
vertex 0.098078 -0.019509 2.000000
vertex 0.098079 -0.019509 0.198079
endloop
endfacet
facet normal 0.995185 -0.098016 0.000000
outer loop
vertex 0.100000 0.000000 2.000000
vertex 0.098079 -0.019509 0.198079
vertex 0.100000 0.000000 0.200000
endloop
endfacet
facet normal 0.956940 -0.290285 0.000000
outer loop
vertex 0.098078 -0.019509 2.000000
vertex 0.092388 -0.038268 2.000000
vertex 0.092388 -0.038268 0.196231
endloop
endfacet
facet normal 0.956941 -0.290284 0.000000
outer loop
vertex 0.098078 -0.019509 2.000000
vertex 0.092388 -0.038268 0.196231
vertex 0.098079 -0.019509 0.198079
endloop
endfacet
facet normal 0.881921 -0.471397 0.000000
outer loop
vertex 0.092388 -0.038268 0.196231
vertex 0.092388 -0.038268 2.000000
vertex 0.083147 -0.055557 2.000000
endloop
endfacet
facet normal 0.881921 -0.471397 0.000000
outer loop
vertex 0.083147 -0.055557 2.000000
vertex 0.083147 -0.055557 0.191140
vertex 0.091987 -0.039018 0.196157
endloop
endfacet
facet normal 0.881915 -0.471408 0.000000
outer loop
vertex 0.083147 -0.055557 2.000000
vertex 0.091987 -0.039018 0.196157
vertex 0.092388 -0.038268 0.196231
endloop
endfacet
facet normal 0.773011 -0.634393 0.000000
outer loop
vertex 0.083147 -0.055557 2.000000
vertex 0.070711 -0.070711 2.000000
vertex 0.070711 -0.070711 0.186543
endloop
endfacet
facet normal 0.773010 -0.634393 0.000000
outer loop
vertex 0.083147 -0.055557 2.000000
vertex 0.070711 -0.070711 0.186543
vertex 0.083147 -0.055557 0.191140
endloop
endfacet
facet normal 0.634393 -0.773011 0.000000
outer loop
vertex 0.070711 -0.070711 0.186543
vertex 0.070711 -0.070711 2.000000
vertex 0.055557 -0.083147 2.000000
endloop
endfacet
facet normal 0.634393 -0.773011 0.000000
outer loop
vertex 0.055557 -0.083147 2.000000
vertex 0.055557 -0.083147 0.181243
vertex 0.063612 -0.076537 0.184776
endloop
endfacet
facet normal 0.634393 -0.773011 0.000000
outer loop
vertex 0.055557 -0.083147 2.000000
vertex 0.063612 -0.076537 0.184776
vertex 0.070711 -0.070711 0.186543
endloop
endfacet
facet normal 0.471397 -0.881921 0.000000
outer loop
vertex 0.055557 -0.083147 2.000000
vertex 0.038268 -0.092388 2.000000
vertex 0.038268 -0.092388 0.176303
endloop
endfacet
facet normal 0.471397 -0.881921 0.000000
outer loop
vertex 0.055557 -0.083147 2.000000
vertex 0.038268 -0.092388 0.176303
vertex 0.055557 -0.083147 0.181243
endloop
endfacet
facet normal 0.290285 -0.956940 0.000000
outer loop
vertex 0.038268 -0.092388 2.000000
vertex 0.019509 -0.098079 2.000000
vertex 0.019509 -0.098079 0.173262
endloop
endfacet
facet normal 0.290285 -0.956940 0.000000
outer loop
vertex 0.038268 -0.092388 2.000000
vertex 0.019509 -0.098079 0.173262
vertex 0.038268 -0.092388 0.176303
endloop
endfacet
facet normal 0.098017 -0.995185 0.000000
outer loop
vertex 0.019509 -0.098079 0.173262
vertex 0.019509 -0.098079 2.000000
vertex -0.000000 -0.100000 2.000000
endloop
endfacet
facet normal 0.098017 -0.995185 0.000000
outer loop
vertex 0.019509 -0.098079 0.173262
vertex -0.000000 -0.100000 2.000000
vertex -0.000000 -0.100000 0.172235
endloop
endfacet
facet normal -0.098017 -0.995185 -0.000000
outer loop
vertex -0.000000 -0.100000 0.172235
vertex -0.000000 -0.100000 2.000000
vertex -0.019509 -0.098079 2.000000
endloop
endfacet
facet normal -0.098017 -0.995185 -0.000000
outer loop
vertex -0.000000 -0.100000 0.172235
vertex -0.019509 -0.098079 2.000000
vertex -0.019509 -0.098079 0.173262
endloop
endfacet
facet normal -0.290285 -0.956940 -0.000000
outer loop
vertex -0.019509 -0.098079 0.173262
vertex -0.019509 -0.098079 2.000000
vertex -0.038268 -0.092388 2.000000
endloop
endfacet
facet normal -0.290285 -0.956940 -0.000000
outer loop
vertex -0.019509 -0.098079 0.173262
vertex -0.038268 -0.092388 2.000000
vertex -0.038268 -0.092388 0.176303
endloop
endfacet
facet normal -0.471397 -0.881921 -0.000000
outer loop
vertex -0.038268 -0.092388 0.176303
vertex -0.038268 -0.092388 2.000000
vertex -0.055557 -0.083147 2.000000
endloop
endfacet
facet normal -0.471397 -0.881921 -0.000000
outer loop
vertex -0.038268 -0.092388 0.176303
vertex -0.055557 -0.083147 2.000000
vertex -0.055557 -0.083147 0.181243
endloop
endfacet
facet normal -0.634393 -0.773010 -0.000000
outer loop
vertex -0.063612 -0.076537 0.184776
vertex -0.055557 -0.083147 0.181243
vertex -0.055557 -0.083147 2.000000
endloop
endfacet
facet normal -0.634393 -0.773010 -0.000000
outer loop
vertex -0.055557 -0.083147 2.000000
vertex -0.070711 -0.070711 2.000000
vertex -0.070711 -0.070711 0.186543
endloop
endfacet
facet normal -0.634393 -0.773011 -0.000000
outer loop
vertex -0.055557 -0.083147 2.000000
vertex -0.070711 -0.070711 0.186543
vertex -0.063612 -0.076537 0.184776
endloop
endfacet
facet normal -0.773011 -0.634393 -0.000000
outer loop
vertex -0.070711 -0.070711 0.186543
vertex -0.070711 -0.070711 2.000000
vertex -0.083147 -0.055557 2.000000
endloop
endfacet
facet normal -0.773011 -0.634393 -0.000000
outer loop
vertex -0.070711 -0.070711 0.186543
vertex -0.083147 -0.055557 2.000000
vertex -0.083147 -0.055557 0.191140
endloop
endfacet
facet normal -0.881921 -0.471397 -0.000000
outer loop
vertex -0.091987 -0.039018 0.196157
vertex -0.083147 -0.055557 0.191140
vertex -0.083147 -0.055557 2.000000
endloop
endfacet
facet normal -0.881921 -0.471397 -0.000000
outer loop
vertex -0.083147 -0.055557 2.000000
vertex -0.092388 -0.038268 2.000000
vertex -0.092388 -0.038268 0.196231
endloop
endfacet
facet normal -0.881915 -0.471408 -0.000000
outer loop
vertex -0.083147 -0.055557 2.000000
vertex -0.092388 -0.038268 0.196231
vertex -0.091987 -0.039018 0.196157
endloop
endfacet
facet normal -0.956940 -0.290284 -0.000000
outer loop
vertex -0.092388 -0.038268 0.196231
vertex -0.092388 -0.038268 2.000000
vertex -0.098079 -0.019509 2.000000
endloop
endfacet
facet normal -0.956940 -0.290285 -0.000000
outer loop
vertex -0.092388 -0.038268 0.196231
vertex -0.098079 -0.019509 2.000000
vertex -0.098079 -0.019509 0.198079
endloop
endfacet
facet normal -0.995185 -0.098017 -0.000000
outer loop
vertex -0.098079 -0.019509 0.198079
vertex -0.098079 -0.019509 2.000000
vertex -0.100000 0.000000 2.000000
endloop
endfacet
facet normal -0.995185 -0.098017 -0.000000
outer loop
vertex -0.098079 -0.019509 0.198079
vertex -0.100000 0.000000 2.000000
vertex -0.100000 0.000000 0.200000
endloop
endfacet
facet normal -0.995185 0.098017 -0.000000
outer loop
vertex -0.098079 0.019509 2.000000
vertex -0.098079 0.019509 0.198079
vertex -0.100000 0.000000 0.200000
endloop
endfacet
facet normal -0.995185 0.098017 -0.000000
outer loop
vertex -0.098079 0.019509 2.000000
vertex -0.100000 0.000000 0.200000
vertex -0.100000 0.000000 2.000000
endloop
endfacet
facet normal -0.956941 0.290284 -0.000000
outer loop
vertex -0.092388 0.038268 2.000000
vertex -0.092388 0.038268 0.196231
vertex -0.098079 0.019509 0.198079
endloop
endfacet
facet normal -0.956940 0.290285 -0.000000
outer loop
vertex -0.092388 0.038268 2.000000
vertex -0.098079 0.019509 0.198079
vertex -0.098079 0.019509 2.000000
endloop
endfacet
facet normal -0.881921 0.471397 -0.000000
outer loop
vertex -0.092388 0.038268 2.000000
vertex -0.083147 0.055557 2.000000
vertex -0.083147 0.055557 0.191140
endloop
endfacet
facet normal -0.881922 0.471395 -0.000000
outer loop
vertex -0.091987 0.039018 0.196157
vertex -0.092388 0.038268 0.196231
vertex -0.092388 0.038268 2.000000
endloop
endfacet
facet normal -0.881921 0.471397 -0.000000
outer loop
vertex -0.083147 0.055557 0.191140
vertex -0.091987 0.039018 0.196157
vertex -0.092388 0.038268 2.000000
endloop
endfacet
facet normal -0.773011 0.634393 -0.000000
outer loop
vertex -0.070711 0.070711 2.000000
vertex -0.070711 0.070711 0.186543
vertex -0.083147 0.055557 0.191140
endloop
endfacet
facet normal -0.773010 0.634393 -0.000000
outer loop
vertex -0.070711 0.070711 2.000000
vertex -0.083147 0.055557 0.191140
vertex -0.083147 0.055557 2.000000
endloop
endfacet
facet normal -0.634393 0.773010 -0.000000
outer loop
vertex -0.070711 0.070711 2.000000
vertex -0.055557 0.083147 2.000000
vertex -0.055557 0.083147 0.181243
endloop
endfacet
facet normal -0.634393 0.773011 -0.000000
outer loop
vertex -0.063612 0.076537 0.184776
vertex -0.070711 0.070711 0.186543
vertex -0.070711 0.070711 2.000000
endloop
endfacet
facet normal -0.634393 0.773011 -0.000000
outer loop
vertex -0.055557 0.083147 0.181243
vertex -0.063612 0.076537 0.184776
vertex -0.070711 0.070711 2.000000
endloop
endfacet
facet normal -0.471397 0.881921 -0.000000
outer loop
vertex -0.038268 0.092388 2.000000
vertex -0.038268 0.092388 0.176303
vertex -0.055557 0.083147 0.181243
endloop
endfacet
facet normal -0.471397 0.881921 -0.000000
outer loop
vertex -0.038268 0.092388 2.000000
vertex -0.055557 0.083147 0.181243
vertex -0.055557 0.083147 2.000000
endloop
endfacet
facet normal -0.290285 0.956940 -0.000000
outer loop
vertex -0.019509 0.098079 2.000000
vertex -0.019509 0.098079 0.173262
vertex -0.038268 0.092388 0.176303
endloop
endfacet
facet normal -0.290285 0.956940 -0.000000
outer loop
vertex -0.019509 0.098079 2.000000
vertex -0.038268 0.092388 0.176303
vertex -0.038268 0.092388 2.000000
endloop
endfacet
facet normal -0.098017 0.995185 -0.000000
outer loop
vertex -0.019509 0.098079 0.173262
vertex -0.019509 0.098079 2.000000
vertex -0.000000 0.100000 2.000000
endloop
endfacet
facet normal -0.098017 0.995185 -0.000000
outer loop
vertex -0.019509 0.098079 0.173262
vertex -0.000000 0.100000 2.000000
vertex -0.000000 0.100000 0.172235
endloop
endfacet
endsolid Exported from Blender-3.4.1
