<?xml version="1.0" encoding="UTF-8" standalone="no"?>
<svg
   viewBox="0 0 20 20"
   xml:space="preserve"
   version="1.1"
   id="svg2"
   sodipodi:docname="collection_new.svg"
   inkscape:version="1.3.2 (091e20e, 2023-11-25, custom)"
   inkscape:export-filename="collection_new.png"
   inkscape:export-xdpi="96"
   inkscape:export-ydpi="96"
   xmlns:inkscape="http://www.inkscape.org/namespaces/inkscape"
   xmlns:sodipodi="http://sodipodi.sourceforge.net/DTD/sodipodi-0.dtd"
   xmlns="http://www.w3.org/2000/svg"
   xmlns:svg="http://www.w3.org/2000/svg"><defs
   id="defs2" /><sodipodi:namedview
   id="namedview2"
   pagecolor="#ffffff"
   bordercolor="#000000"
   borderopacity="0.25"
   inkscape:showpageshadow="2"
   inkscape:pageopacity="0.0"
   inkscape:pagecheckerboard="0"
   inkscape:deskcolor="#d1d1d1"
   inkscape:zoom="38.85"
   inkscape:cx="10.01287"
   inkscape:cy="10"
   inkscape:window-width="1920"
   inkscape:window-height="991"
   inkscape:window-x="-9"
   inkscape:window-y="-9"
   inkscape:window-maximized="1"
   inkscape:current-layer="g2" />
    <g
   fill="#000000"
   id="g2"
   transform="matrix(1.2857143,0,0,1.2857143,-2.8571429,-2.8571429)">
        <path
   d="m 473,628 a 1,1 0 1 0 0,2 h 2 a 1,1 0 1 0 0,-2 z m -4.5,-6 a 0.5,0.5 0 0 0 -0.5,0.5 v 3 a 0.5,0.5 0 0 0 0.5,0.5 h 0.5 v 7.5 a 0.5,0.5 0 0 0 0.5,0.5 h 9 a 0.5,0.5 0 0 0 0.5,-0.5 v -5 a 0.5,0.5 0 1 0 -1,0 v 4.5 h -8 v -7 h 3.5 a 0.5,0.5 0 1 0 0,-1 H 469 v -2 h 4.5 a 0.5,0.5 0 1 0 0,-1 z"
   fill="#000000"
   transform="translate(-465,-617)"
   id="path1" />
        
    </g>
</svg>
