<?xml version="1.0" encoding="UTF-8" standalone="no"?>
<svg
   viewBox="0 0 20 20"
   xml:space="preserve"
   version="1.1"
   id="svg3"
   sodipodi:docname="sphere.svg"
   inkscape:export-filename="..\..\..\Desktop\octopus\asset\sphere.png"
   inkscape:export-xdpi="614.40002"
   inkscape:export-ydpi="614.40002"
   inkscape:version="1.3.2 (091e20e, 2023-11-25, custom)"
   xmlns:inkscape="http://www.inkscape.org/namespaces/inkscape"
   xmlns:sodipodi="http://sodipodi.sourceforge.net/DTD/sodipodi-0.dtd"
   xmlns="http://www.w3.org/2000/svg"
   xmlns:svg="http://www.w3.org/2000/svg"><defs
   id="defs3" /><sodipodi:namedview
   id="namedview3"
   pagecolor="#ffffff"
   bordercolor="#000000"
   borderopacity="0.25"
   inkscape:showpageshadow="2"
   inkscape:pageopacity="0.0"
   inkscape:pagecheckerboard="0"
   inkscape:deskcolor="#d1d1d1"
   inkscape:zoom="38.85"
   inkscape:cx="10"
   inkscape:cy="10"
   inkscape:window-width="1920"
   inkscape:window-height="991"
   inkscape:window-x="-9"
   inkscape:window-y="-9"
   inkscape:window-maximized="1"
   inkscape:current-layer="svg3" />
    <g
   fill="#000000"
   id="g3"
   style="fill:#ff8200;fill-opacity:1"
   transform="matrix(1.4210333,0,0,1.3346204,-4.2746825,-3.7837838)">
        <path
   fill="#000000"
   d="m 391,389 c -3.838,0 -6.961,3.105 -6.996,6.936 A 0.5,0.5 0 0 0 384,396 c 0,3.86 3.14,7 7,7 l 0.05,-0.002 a 0.5,0.5 0 0 0 0.01,-0.002 C 394.893,402.963 398,399.84 398,396 l -0.002,-0.05 a 0.5,0.5 0 0 0 -0.002,-0.01 7.003,7.003 0 0 0 -6.934,-6.936 A 0.5,0.5 0 0 0 391,389 Z m 0,1 c 3.32,0 6,2.68 6,6 0,0.17 -0.086,0.365 -0.348,0.604 -0.262,0.238 -0.688,0.486 -1.236,0.697 -1.097,0.422 -2.673,0.699 -4.416,0.699 -0.66,0 -1.282,-0.05 -1.877,-0.123 A 15.468,15.468 0 0 1 389,396 c 0,-1.743 0.277,-3.32 0.7,-4.416 0.21,-0.548 0.458,-0.975 0.696,-1.236 C 390.635,390.086 390.83,390 391,390 Z m -1.764,0.264 a 6.04,6.04 0 0 0 -0.47,0.96 C 388.283,392.48 388,394.154 388,396 c 0,0.595 0.038,1.162 0.094,1.713 a 9.647,9.647 0 0 1 -1.51,-0.412 c -0.548,-0.211 -0.975,-0.46 -1.236,-0.697 C 385.086,396.365 385,396.17 385,396 a 5.991,5.991 0 0 1 4.236,-5.736 z m -3.972,7.5 c 0.287,0.173 0.602,0.332 0.96,0.47 0.586,0.225 1.269,0.402 2.01,0.532 a 10.9,10.9 0 0 0 0.532,2.01 c 0.138,0.358 0.297,0.673 0.47,0.96 a 5.995,5.995 0 0 1 -3.972,-3.972 z m 11.472,0 A 5.991,5.991 0 0 1 391,402 c -0.17,0 -0.365,-0.086 -0.604,-0.348 -0.238,-0.262 -0.486,-0.688 -0.697,-1.236 a 9.665,9.665 0 0 1 -0.412,-1.51 c 0.55,0.056 1.118,0.094 1.713,0.094 1.847,0 3.52,-0.283 4.775,-0.766 a 6.04,6.04 0 0 0 0.961,-0.47 z"
   transform="translate(-381,-386)"
   id="path1"
   style="fill:#ff8200;fill-opacity:1" />
        <g
   fill="#000000"
   id="g2"
   style="fill:#ff8200;fill-opacity:1">
            <path
   fill="#000000"
   d="m 391,330 c -1.847,0 -3.52,0.283 -4.775,0.766 -0.628,0.241 -1.155,0.53 -1.551,0.89 -0.396,0.36 -0.674,0.823 -0.674,1.344 a 0.5,0.5 0 1 0 1,0 c 0,-0.17 0.086,-0.365 0.348,-0.604 0.262,-0.238 0.688,-0.486 1.236,-0.697 1.097,-0.422 2.673,-0.699 4.416,-0.699 1.743,0 3.32,0.277 4.416,0.7 0.548,0.21 0.975,0.458 1.236,0.696 0.262,0.239 0.348,0.434 0.348,0.604 a 0.5,0.5 0 1 0 1,0 c 0,-0.52 -0.278,-0.984 -0.674,-1.344 -0.396,-0.36 -0.923,-0.649 -1.55,-0.89 C 394.52,330.283 392.846,330 391,330 Z"
   transform="translate(-381,-323)"
   id="path2"
   style="fill:#ff8200;fill-opacity:1" />
        </g>
    </g>
</svg>
