<?xml version="1.0" encoding="UTF-8" standalone="no"?>
<svg
   viewBox="0 0 20 20"
   xml:space="preserve"
   version="1.1"
   id="svg1"
   sodipodi:docname="home.svg"
   inkscape:version="1.3.2 (091e20e, 2023-11-25, custom)"
   inkscape:export-filename="home.png"
   inkscape:export-xdpi="614.40002"
   inkscape:export-ydpi="614.40002"
   xmlns:inkscape="http://www.inkscape.org/namespaces/inkscape"
   xmlns:sodipodi="http://sodipodi.sourceforge.net/DTD/sodipodi-0.dtd"
   xmlns="http://www.w3.org/2000/svg"
   xmlns:svg="http://www.w3.org/2000/svg"><defs
   id="defs1" /><sodipodi:namedview
   id="namedview1"
   pagecolor="#ffffff"
   bordercolor="#000000"
   borderopacity="0.25"
   inkscape:showpageshadow="2"
   inkscape:pageopacity="0.0"
   inkscape:pagecheckerboard="0"
   inkscape:deskcolor="#d1d1d1"
   inkscape:zoom="38.85"
   inkscape:cx="10"
   inkscape:cy="10"
   inkscape:window-width="1920"
   inkscape:window-height="991"
   inkscape:window-x="-9"
   inkscape:window-y="-9"
   inkscape:window-maximized="1"
   inkscape:current-layer="svg1" />
    <path
   d="M 9.9793677,1.0001577 A 1.2856973,1.285703 0 0 0 9.0909507,1.3768686 L 1.3767668,9.0910866 A 1.2561263,1.2561318 0 0 0 1.0000574,10.000079 v 0.642852 a 0.64284864,0.64285151 0 0 0 0.6428487,0.642851 h 0.6428486 v 7.071367 A 0.64284864,0.64285151 0 0 0 2.9286034,19 h 4.4999405 v -7.071366 a 0.64284864,0.64285151 0 0 1 0.6428488,-0.642852 h 3.8570923 a 0.64284864,0.64285151 0 0 1 0.642848,0.642852 V 19 h 4.499941 a 0.64284864,0.64285151 0 0 0 0.642849,-0.642851 v -7.071367 h 0.642848 A 0.64284864,0.64285151 0 0 0 18.99982,10.642931 V 10.000079 A 1.2342694,1.2342749 0 0 0 18.62311,9.0910866 L 10.908927,1.3768686 A 1.2856973,1.285703 0 0 0 9.9793677,1.0001577 Z"
   fill="#000000"
   id="path1"
   style="fill:#000100;fill-opacity:1;stroke-width:1.2857" />
<path
   style="fill:#ffffff;fill-opacity:1;stroke:#ffffff;stroke-width:0;stroke-linecap:square;stroke-dasharray:none;paint-order:markers stroke fill"
   id="path2"
   sodipodi:type="arc"
   sodipodi:cx="6"
   sodipodi:cy="9"
   sodipodi:rx="1"
   sodipodi:ry="1"
   sodipodi:start="4.7451032"
   sodipodi:end="4.712389"
   sodipodi:open="true"
   sodipodi:arc-type="arc"
   d="M 6.0327084,8.0005351 A 1,1 0 0 1 6.999699,9.0245332 1,1 0 0 1 5.9836436,9.9998662 1,1 0 0 1 5.0000334,8.9918215 1,1 0 0 1 6,8" /><path
   style="fill:#ffffff;fill-opacity:1;stroke:#ffffff;stroke-width:0;stroke-linecap:square;stroke-dasharray:none;paint-order:markers stroke fill"
   id="path2-8"
   sodipodi:type="arc"
   sodipodi:cx="14"
   sodipodi:cy="9"
   sodipodi:rx="1"
   sodipodi:ry="1"
   sodipodi:start="4.7451032"
   sodipodi:end="4.712389"
   sodipodi:open="true"
   sodipodi:arc-type="arc"
   d="M 14.032708,8.0005351 A 1,1 0 0 1 14.999699,9.0245332 1,1 0 0 1 13.983644,9.9998662 1,1 0 0 1 13.000033,8.9918215 1,1 0 0 1 14,8" /></svg>
