<?xml version="1.0" encoding="UTF-8" standalone="no"?>
<svg
   viewBox="0 0 20 20"
   xml:space="preserve"
   version="1.1"
   id="svg1"
   sodipodi:docname="snap_volume.svg"
   inkscape:version="1.3.2 (091e20e, 2023-11-25, custom)"
   inkscape:export-filename="snap_volume.png"
   inkscape:export-xdpi="614.40002"
   inkscape:export-ydpi="614.40002"
   xmlns:inkscape="http://www.inkscape.org/namespaces/inkscape"
   xmlns:sodipodi="http://sodipodi.sourceforge.net/DTD/sodipodi-0.dtd"
   xmlns="http://www.w3.org/2000/svg"
   xmlns:svg="http://www.w3.org/2000/svg"><defs
   id="defs1" /><sodipodi:namedview
   id="namedview1"
   pagecolor="#ffffff"
   bordercolor="#000000"
   borderopacity="0.25"
   inkscape:showpageshadow="2"
   inkscape:pageopacity="0.0"
   inkscape:pagecheckerboard="0"
   inkscape:deskcolor="#d1d1d1"
   inkscape:zoom="38.85"
   inkscape:cx="10"
   inkscape:cy="10"
   inkscape:window-width="1920"
   inkscape:window-height="991"
   inkscape:window-x="-9"
   inkscape:window-y="-9"
   inkscape:window-maximized="1"
   inkscape:current-layer="svg1" />
    <path
   fill="#000000"
   d="M 6.7857153,1.000001 A 0.64285701,0.64285707 0 0 0 6.3305726,1.1877153 L 1.1877165,6.3305719 A 0.6415713,0.64157135 0 0 0 1.0000022,6.7857147 V 18.357141 a 0.64285701,0.64285707 0 0 0 0.6428571,0.642858 H 13.214285 a 0.64285701,0.64285707 0 0 0 0.455144,-0.187714 l 5.142855,-5.142857 a 0.64285701,0.64285707 0 0 0 0.187715,-0.455142 V 1.642858 A 0.64285701,0.64285707 0 0 0 18.357142,1.000001 Z m 9.6274277,1.2625714 a 1.285714,1.2857142 0 0 1 0.934714,2.2075711 l -3.480428,3.4804282 v 8.4677133 a 1.2857142,1.2857144 0 1 1 -2.571428,0 V 8.7040001 H 3.581716 a 1.285714,1.2857142 0 1 1 0,-2.5714282 h 8.467713 l 3.479143,-3.4804282 a 1.285714,1.2857142 0 0 1 0.883285,-0.3895713 z"
   id="path1"
   style="fill:#000000;fill-opacity:1;stroke-width:1.28571" />
</svg>
